<svg width="16" height="16" viewBox="0 0 16 16" fill="none" xmlns="http://www.w3.org/2000/svg">
<path d="M 7.5 1.886719 C 7.5 1.621094 7.710938 1.410156 7.976562 1.410156 C 8.238281 1.410156 8.449219 1.621094 8.449219 1.886719 C 8.449219 2.148438 8.238281 2.359375 7.976562 2.359375 C 7.710938 2.359375 7.5 2.148438 7.5 1.886719 M 1.828125 6.191406 C 1.828125 5.929688 2.039062 5.714844 2.300781 5.714844 C 2.566406 5.714844 2.777344 5.929688 2.777344 6.191406 C 2.777344 6.453125 2.566406 6.667969 2.300781 6.667969 C 2.039062 6.667969 1.828125 6.453125 1.828125 6.191406 M 13.171875 6.214844 C 13.171875 5.949219 13.386719 5.738281 13.648438 5.738281 C 13.910156 5.738281 14.125 5.949219 14.125 6.214844 C 14.125 6.476562 13.910156 6.6875 13.648438 6.6875 C 13.386719 6.6875 13.171875 6.476562 13.171875 6.214844 M 3.203125 6.863281 C 3.421875 6.765625 3.519531 6.511719 3.421875 6.292969 L 3.210938 5.816406 L 4.042969 5.816406 L 4.042969 9.554688 L 2.367188 9.554688 C 2.160156 8.828125 2.097656 8.070312 2.179688 7.320312 Z M 6.675781 6.957031 L 6.675781 5.855469 L 8.648438 5.855469 C 8.753906 5.855469 9.371094 5.972656 9.371094 6.433594 C 9.371094 6.820312 8.894531 6.957031 8.507812 6.957031 Z M 3.976562 12.890625 C 3.976562 12.628906 4.1875 12.417969 4.453125 12.417969 C 4.714844 12.417969 4.925781 12.628906 4.925781 12.890625 C 4.925781 13.15625 4.714844 13.367188 4.453125 13.367188 C 4.1875 13.367188 3.976562 13.15625 3.976562 12.890625 M 11.023438 12.914062 C 11.023438 12.652344 11.234375 12.4375 11.5 12.4375 C 11.761719 12.4375 11.972656 12.652344 11.972656 12.914062 C 11.972656 13.175781 11.761719 13.390625 11.5 13.390625 C 11.234375 13.390625 11.023438 13.175781 11.023438 12.914062 M 11.167969 11.835938 C 10.933594 11.785156 10.703125 11.933594 10.65625 12.167969 L 10.417969 13.285156 C 8.863281 13.988281 7.078125 13.980469 5.535156 13.261719 L 5.292969 12.144531 C 5.246094 11.910156 5.015625 11.761719 4.78125 11.8125 L 3.796875 12.023438 C 3.613281 11.835938 3.445312 11.636719 3.289062 11.425781 L 8.074219 11.425781 C 8.128906 11.425781 8.164062 11.414062 8.164062 11.367188 L 8.164062 9.671875 C 8.164062 9.625 8.128906 9.613281 8.074219 9.613281 L 6.671875 9.613281 L 6.671875 8.539062 L 8.1875 8.539062 C 8.324219 8.539062 8.925781 8.582031 9.117188 9.347656 C 9.179688 9.585938 9.308594 10.351562 9.402344 10.597656 C 9.492188 10.875 9.855469 11.425781 10.246094 11.425781 L 12.71875 11.425781 C 12.550781 11.644531 12.371094 11.855469 12.175781 12.050781 Z M 13.828125 7.367188 C 13.859375 7.703125 13.863281 8.042969 13.839844 8.382812 L 13.238281 8.382812 C 13.179688 8.382812 13.152344 8.421875 13.152344 8.480469 L 13.152344 8.757812 C 13.152344 9.40625 12.789062 9.546875 12.46875 9.585938 C 12.160156 9.617188 11.824219 9.457031 11.78125 9.269531 C 11.601562 8.253906 11.300781 8.039062 10.824219 7.664062 C 11.414062 7.292969 12.027344 6.738281 12.027344 6 C 12.027344 5.203125 11.480469 4.703125 11.109375 4.457031 C 10.585938 4.113281 10.007812 4.042969 9.851562 4.042969 L 3.636719 4.042969 C 4.496094 3.082031 5.648438 2.433594 6.914062 2.195312 L 7.644531 2.960938 C 7.8125 3.136719 8.085938 3.140625 8.257812 2.976562 L 9.078125 2.191406 C 10.769531 2.507812 12.234375 3.554688 13.085938 5.046875 L 12.527344 6.3125 C 12.429688 6.535156 12.527344 6.789062 12.746094 6.886719 Z M 15.226562 7.386719 L 15.207031 7.191406 L 15.785156 6.652344 C 15.902344 6.542969 15.859375 6.324219 15.707031 6.265625 L 14.96875 5.992188 L 14.910156 5.800781 L 15.371094 5.160156 C 15.464844 5.03125 15.378906 4.820312 15.222656 4.796875 L 14.441406 4.667969 L 14.347656 4.496094 L 14.675781 3.777344 C 14.742188 3.628906 14.617188 3.441406 14.457031 3.449219 L 13.667969 3.476562 L 13.542969 3.324219 L 13.722656 2.554688 C 13.761719 2.398438 13.601562 2.238281 13.445312 2.277344 L 12.675781 2.457031 L 12.523438 2.332031 L 12.550781 1.542969 C 12.558594 1.382812 12.371094 1.257812 12.222656 1.324219 L 11.507812 1.652344 L 11.332031 1.558594 L 11.203125 0.777344 C 11.179688 0.621094 10.972656 0.535156 10.839844 0.628906 L 10.199219 1.089844 L 10.011719 1.03125 L 9.734375 0.292969 C 9.679688 0.140625 9.457031 0.0976562 9.347656 0.214844 L 8.808594 0.792969 L 8.613281 0.773438 L 8.195312 0.101562 C 8.113281 -0.0351562 7.886719 -0.0351562 7.804688 0.101562 L 7.386719 0.773438 L 7.191406 0.792969 L 6.652344 0.214844 C 6.542969 0.0976562 6.324219 0.140625 6.265625 0.292969 L 5.992188 1.03125 L 5.800781 1.089844 L 5.160156 0.628906 C 5.03125 0.535156 4.820312 0.621094 4.796875 0.777344 L 4.667969 1.558594 L 4.496094 1.652344 L 3.777344 1.324219 C 3.628906 1.257812 3.441406 1.382812 3.449219 1.542969 L 3.476562 2.332031 L 3.324219 2.457031 L 2.554688 2.277344 C 2.398438 2.238281 2.238281 2.398438 2.277344 2.554688 L 2.457031 3.324219 L 2.332031 3.476562 L 1.542969 3.449219 C 1.382812 3.445312 1.257812 3.628906 1.324219 3.777344 L 1.652344 4.496094 L 1.558594 4.667969 L 0.777344 4.796875 C 0.621094 4.820312 0.535156 5.03125 0.628906 5.160156 L 1.089844 5.800781 L 1.03125 5.992188 L 0.292969 6.265625 C 0.140625 6.324219 0.0976562 6.542969 0.214844 6.652344 L 0.792969 7.191406 L 0.773438 7.386719 L 0.101562 7.804688 C -0.0351562 7.886719 -0.0351562 8.113281 0.101562 8.195312 L 0.773438 8.613281 L 0.792969 8.808594 L 0.214844 9.347656 C 0.0976562 9.457031 0.140625 9.679688 0.292969 9.734375 L 1.03125 10.011719 L 1.089844 10.199219 L 0.628906 10.839844 C 0.535156 10.972656 0.621094 11.179688 0.777344 11.203125 L 1.558594 11.332031 L 1.652344 11.507812 L 1.324219 12.222656 C 1.257812 12.371094 1.382812 12.558594 1.542969 12.550781 L 2.332031 12.523438 L 2.457031 12.675781 L 2.277344 13.445312 C 2.238281 13.601562 2.398438 13.761719 2.554688 13.722656 L 3.324219 13.542969 L 3.476562 13.667969 L 3.449219 14.457031 C 3.441406 14.617188 3.628906 14.742188 3.777344 14.675781 L 4.496094 14.347656 L 4.667969 14.441406 L 4.796875 15.222656 C 4.820312 15.378906 5.03125 15.464844 5.160156 15.371094 L 5.800781 14.910156 L 5.992188 14.96875 L 6.265625 15.707031 C 6.324219 15.859375 6.542969 15.902344 6.652344 15.785156 L 7.191406 15.207031 L 7.386719 15.226562 L 7.804688 15.898438 C 7.886719 16.035156 8.113281 16.035156 8.195312 15.898438 L 8.613281 15.226562 L 8.808594 15.207031 L 9.347656 15.785156 C 9.457031 15.902344 9.679688 15.859375 9.734375 15.707031 L 10.011719 14.96875 L 10.199219 14.910156 L 10.839844 15.371094 C 10.972656 15.464844 11.179688 15.378906 11.203125 15.222656 L 11.332031 14.441406 L 11.507812 14.347656 L 12.222656 14.675781 C 12.371094 14.742188 12.558594 14.617188 12.550781 14.457031 L 12.523438 13.667969 L 12.675781 13.542969 L 13.445312 13.722656 C 13.601562 13.761719 13.761719 13.601562 13.722656 13.445312 L 13.542969 12.675781 L 13.667969 12.523438 L 14.457031 12.550781 C 14.617188 12.558594 14.742188 12.371094 14.675781 12.222656 L 14.347656 11.507812 L 14.441406 11.332031 L 15.222656 11.203125 C 15.378906 11.179688 15.464844 10.972656 15.371094 10.839844 L 14.910156 10.199219 L 14.96875 10.011719 L 15.707031 9.734375 C 15.859375 9.679688 15.902344 9.457031 15.785156 9.347656 L 15.207031 8.808594 L 15.226562 8.613281 L 15.898438 8.195312 C 16.035156 8.113281 16.035156 7.886719 15.898438 7.804688 Z M 15.226562 7.386719" fill="#CED0D6"/>
</svg>
